<svg xmlns:xlink="http://www.w3.org/1999/xlink" data-v-fde0c5aa="" xmlns="http://www.w3.org/2000/svg" viewBox="0 0 300 300" class="iconLeft" width="500"  height="500" ><!----><defs data-v-fde0c5aa=""><!----></defs><rect data-v-fde0c5aa="" fill="#257DC8" x="0" y="0" width="300px" height="300px" class="logo-background-square"></rect><defs data-v-fde0c5aa=""><!----></defs><g data-v-fde0c5aa="" id="6540b180-9f86-4205-8160-7272d35eedce" fill="#FFFFFF" transform="matrix(5.056482763404517,0,0,5.056482763404517,115.7385408769391,85.25173667148908)"><path d="M8.05 17.18L5.78 17.18L4.45 14.36L3.07 14.36L3.07 17.18L0.98 17.18L0.98 8.43L4.76 8.43L4.76 8.43Q5.82 8.43 6.45 8.74L6.45 8.74L6.45 8.74Q7.07 9.04 7.36 9.72L7.36 9.72L7.36 9.72Q7.64 10.39 7.64 11.52L7.64 11.52L7.64 11.52Q7.64 12.49 7.38 13.11L7.38 13.11L7.38 13.11Q7.11 13.73 6.55 14.04L6.55 14.04L8.05 17.18ZM3.07 10.15L3.07 12.80L4.70 12.80L4.70 12.80Q5.12 12.80 5.29 12.67L5.29 12.67L5.29 12.67Q5.46 12.54 5.46 12.21L5.46 12.21L5.46 10.74L5.46 10.74Q5.46 10.40 5.29 10.28L5.29 10.28L5.29 10.28Q5.12 10.15 4.70 10.15L4.70 10.15L3.07 10.15ZM9.41 17.18L9.41 8.43L11.49 8.43L11.49 15.46L14.43 15.46L14.43 17.18L9.41 17.18ZM20.29 17.18L19.82 15.50L16.87 15.50L16.41 17.18L14.32 17.18L16.74 8.43L19.95 8.43L22.37 17.18L20.29 17.18ZM17.30 13.94L19.39 13.94L18.41 10.40L18.28 10.40L17.30 13.94ZM26.39 10.15L26.39 17.18L24.30 17.18L24.30 10.15L22.16 10.15L22.16 8.43L28.53 8.43L28.53 10.15L26.39 10.15Z" fill="#FFFFFF"></path></g><defs data-v-fde0c5aa=""><!----></defs><g data-v-fde0c5aa="" id="01fa9953-81a5-45c8-a081-f9f1b882ab69" stroke="none" fill="#21C7D4" transform="matrix(0.8203944248607592,0,0,0.8203944248607592,34.474157966596536,110.46375263189226)"><path d="M76.414 11.271c3.166 2.515 6.73 4.455 9.667 7.251v-1.768c-6.21 4.873-12.963 8.767-20.583 4.292-4.189-2.46-.281-4.726 1.922-6.455 2.851-2.237 5.261-6.004 9.247-3.125 1.31.946 2.556-1.224 1.262-2.158-4.051-2.925-6.822-1.396-10.186 1.696-2.01 1.847-7.988 4.757-7.005 8.331 1.148 4.174 7.253 6.001 10.966 6.394 6.004.635 11.746-3.755 16.145-7.207.528-.414.45-1.339 0-1.768-2.95-2.81-6.489-4.727-9.667-7.251-1.249-.991-3.031.766-1.768 1.768z" fill="#21C7D4"></path><path d="M84.723 19.696c.735 3.462 1.942 6.8 2.026 10.372.038 1.609 2.538 1.613 2.5 0-.09-3.803-1.333-7.35-2.116-11.037-.335-1.577-2.744-.908-2.41.665zM64.134 23.566c-1.453 2.655-2.202 5.541-1.899 8.573.158 1.588 2.66 1.604 2.5 0-.261-2.615.3-5.013 1.558-7.311.774-1.414-1.385-2.676-2.159-1.262z" fill="#21C7D4"></path><path d="M62.854 33.218c3.306 1.691 6.564 4.057 10.313 4.616 1.576.235 2.254-2.174.664-2.411-3.54-.527-6.59-2.765-9.715-4.363-1.433-.733-2.698 1.424-1.262 2.158z" fill="#21C7D4"></path><path d="M74.129 37.708c2.881-1.621 5.941-2.955 8.539-5.03 1.26-1.006-.521-2.763-1.768-1.768-2.411 1.925-5.359 3.134-8.033 4.639-1.404.79-.144 2.951 1.262 2.159z" fill="#21C7D4"></path><path d="M82.99 31.461c-.508-2.863-1.6-5.723-1.681-8.645-.045-1.609-2.545-1.613-2.5 0 .088 3.158 1.222 6.22 1.771 9.31.281 1.586 2.69.912 2.41-.665zM72.293 36.961c2.042 10.268 4.488 20.217 5.577 30.65.499 4.775 1.918 11.453-3.668 13.399-3.265 1.139-6.776 1.352-10.163 1.911-13.231 2.183-27.859 4.741-41.194 2.188-2.388-.457-4.86-1.246-6.589-3.026-2.679-2.758-1.47-9.669-2.438-13.38-1.676-6.424-3.636-12.398-4.32-19.058-.606-5.902-.895-13.608 2.219-18.857 4.092-6.899 17.316-4.909 24.03-5.44 9.756-.772 19.704-1.543 29.466-.503 1.603.171 1.586-2.331 0-2.5-11.355-1.21-22.652.348-33.994.768-7.508.278-16.639-.239-21.661 6.414-3.147 4.169-2.852 11.518-2.783 16.425.096 6.847 1.687 13.375 3.627 19.892 1.033 3.47 1.713 6.698 1.854 10.319.077 1.98.244 4.169 1.12 5.983 1.131 2.341 3.271 3.562 5.607 4.486 7.249 2.868 16.347 1.983 23.913 1.438 7.914-.569 15.658-2.065 23.517-2.99 3.924-.462 8.102-1.059 11.584-3.026 3.024-1.71 2.823-6.656 2.766-9.563-.243-12.336-3.672-24.183-6.061-36.195-.313-1.58-2.722-.91-2.409.665z" fill="#21C7D4"></path><path d="M38.411 43.188c-.762 7.459-1.322 15.125.735 22.429.223.79 1.129 1.14 1.836.747 6.124-3.392 12.703-6.357 17.518-11.59.468-.509.487-1.262 0-1.768-5.057-5.259-11.599-9.593-18.209-12.623-1.455-.667-2.726 1.487-1.262 2.158 6.441 2.953 12.782 7.115 17.703 12.232v-1.768c-4.664 5.067-11.082 7.914-17.012 11.199l1.836.747c-1.996-7.082-1.385-14.538-.646-21.765.165-1.602-2.337-1.586-2.499.002z" fill="#21C7D4"></path></g><!----></svg>